<mxfile host="app.diagrams.net" modified="2022-07-09T10:27:53.034Z" agent="5.0 (Windows NT 10.0; Win64; x64) AppleWebKit/537.36 (KHTML, like Gecko) Chrome/103.0.0.0 Safari/537.36" etag="xZveXqKcUSMgvIdcMZj-" version="20.0.4" type="github">
  <diagram id="7jJ90DRiOmVaTpsWSGdS" name="第 1 页">
    <mxGraphModel dx="2515" dy="831" grid="1" gridSize="2" guides="1" tooltips="1" connect="1" arrows="1" fold="1" page="1" pageScale="1" pageWidth="1169" pageHeight="827" math="0" shadow="0">
      <root>
        <mxCell id="0" />
        <mxCell id="1" parent="0" />
        <mxCell id="KwmrwxW-xq00A47at4ye-63" value="" style="shape=table;html=1;whiteSpace=wrap;startSize=0;container=1;collapsible=0;childLayout=tableLayout;swimlaneLine=1;" vertex="1" parent="1">
          <mxGeometry x="153" y="138" width="436" height="434" as="geometry" />
        </mxCell>
        <mxCell id="KwmrwxW-xq00A47at4ye-106" style="shape=tableRow;horizontal=0;startSize=0;swimlaneHead=0;swimlaneBody=0;top=0;left=0;bottom=0;right=0;collapsible=0;dropTarget=0;fillColor=none;points=[[0,0.5],[1,0.5]];portConstraint=eastwest;" vertex="1" parent="KwmrwxW-xq00A47at4ye-63">
          <mxGeometry width="436" height="54" as="geometry" />
        </mxCell>
        <mxCell id="KwmrwxW-xq00A47at4ye-127" value="&lt;font style=&quot;font-size: 18px;&quot; face=&quot;Comic Sans MS&quot;&gt;0&lt;/font&gt;" style="shape=partialRectangle;html=1;whiteSpace=wrap;connectable=0;fillColor=none;top=0;left=0;bottom=0;right=0;overflow=hidden;" vertex="1" parent="KwmrwxW-xq00A47at4ye-106">
          <mxGeometry width="55" height="54" as="geometry">
            <mxRectangle width="55" height="54" as="alternateBounds" />
          </mxGeometry>
        </mxCell>
        <mxCell id="KwmrwxW-xq00A47at4ye-111" value="&lt;font style=&quot;font-size: 18px;&quot;&gt;1&lt;/font&gt;" style="shape=partialRectangle;html=1;whiteSpace=wrap;connectable=0;fillColor=none;top=0;left=0;bottom=0;right=0;overflow=hidden;" vertex="1" parent="KwmrwxW-xq00A47at4ye-106">
          <mxGeometry x="55" width="56" height="54" as="geometry">
            <mxRectangle width="56" height="54" as="alternateBounds" />
          </mxGeometry>
        </mxCell>
        <mxCell id="KwmrwxW-xq00A47at4ye-107" value="&lt;font style=&quot;font-size: 18px;&quot; face=&quot;Comic Sans MS&quot;&gt;2&lt;/font&gt;" style="shape=partialRectangle;html=1;whiteSpace=wrap;connectable=0;fillColor=none;top=0;left=0;bottom=0;right=0;overflow=hidden;" vertex="1" parent="KwmrwxW-xq00A47at4ye-106">
          <mxGeometry x="111" width="53" height="54" as="geometry">
            <mxRectangle width="53" height="54" as="alternateBounds" />
          </mxGeometry>
        </mxCell>
        <mxCell id="KwmrwxW-xq00A47at4ye-108" value="&lt;font style=&quot;font-size: 18px;&quot;&gt;3&lt;/font&gt;" style="shape=partialRectangle;html=1;whiteSpace=wrap;connectable=0;fillColor=none;top=0;left=0;bottom=0;right=0;overflow=hidden;" vertex="1" parent="KwmrwxW-xq00A47at4ye-106">
          <mxGeometry x="164" width="56" height="54" as="geometry">
            <mxRectangle width="56" height="54" as="alternateBounds" />
          </mxGeometry>
        </mxCell>
        <mxCell id="KwmrwxW-xq00A47at4ye-109" value="&lt;font face=&quot;Comic Sans MS&quot; style=&quot;font-size: 18px;&quot;&gt;4&lt;/font&gt;" style="shape=partialRectangle;html=1;whiteSpace=wrap;connectable=0;fillColor=none;top=0;left=0;bottom=0;right=0;overflow=hidden;" vertex="1" parent="KwmrwxW-xq00A47at4ye-106">
          <mxGeometry x="220" width="54" height="54" as="geometry">
            <mxRectangle width="54" height="54" as="alternateBounds" />
          </mxGeometry>
        </mxCell>
        <mxCell id="KwmrwxW-xq00A47at4ye-110" value="&lt;font face=&quot;Comic Sans MS&quot; style=&quot;font-size: 18px;&quot;&gt;5&lt;/font&gt;" style="shape=partialRectangle;html=1;whiteSpace=wrap;connectable=0;fillColor=none;top=0;left=0;bottom=0;right=0;overflow=hidden;" vertex="1" parent="KwmrwxW-xq00A47at4ye-106">
          <mxGeometry x="274" width="55" height="54" as="geometry">
            <mxRectangle width="55" height="54" as="alternateBounds" />
          </mxGeometry>
        </mxCell>
        <mxCell id="KwmrwxW-xq00A47at4ye-119" value="&lt;font face=&quot;Comic Sans MS&quot; style=&quot;font-size: 18px;&quot;&gt;6&lt;/font&gt;" style="shape=partialRectangle;html=1;whiteSpace=wrap;connectable=0;fillColor=none;top=0;left=0;bottom=0;right=0;overflow=hidden;" vertex="1" parent="KwmrwxW-xq00A47at4ye-106">
          <mxGeometry x="329" width="52" height="54" as="geometry">
            <mxRectangle width="52" height="54" as="alternateBounds" />
          </mxGeometry>
        </mxCell>
        <mxCell id="KwmrwxW-xq00A47at4ye-135" value="&lt;font style=&quot;font-size: 18px;&quot; face=&quot;Comic Sans MS&quot;&gt;7&lt;/font&gt;" style="shape=partialRectangle;html=1;whiteSpace=wrap;connectable=0;fillColor=none;top=0;left=0;bottom=0;right=0;overflow=hidden;" vertex="1" parent="KwmrwxW-xq00A47at4ye-106">
          <mxGeometry x="381" width="55" height="54" as="geometry">
            <mxRectangle width="55" height="54" as="alternateBounds" />
          </mxGeometry>
        </mxCell>
        <mxCell id="KwmrwxW-xq00A47at4ye-101" style="shape=tableRow;horizontal=0;startSize=0;swimlaneHead=0;swimlaneBody=0;top=0;left=0;bottom=0;right=0;collapsible=0;dropTarget=0;fillColor=none;points=[[0,0.5],[1,0.5]];portConstraint=eastwest;" vertex="1" parent="KwmrwxW-xq00A47at4ye-63">
          <mxGeometry y="54" width="436" height="55" as="geometry" />
        </mxCell>
        <mxCell id="KwmrwxW-xq00A47at4ye-128" value="&lt;font face=&quot;Comic Sans MS&quot; style=&quot;font-size: 18px;&quot;&gt;1&lt;/font&gt;" style="shape=partialRectangle;html=1;whiteSpace=wrap;connectable=0;fillColor=none;top=0;left=0;bottom=0;right=0;overflow=hidden;" vertex="1" parent="KwmrwxW-xq00A47at4ye-101">
          <mxGeometry width="55" height="55" as="geometry">
            <mxRectangle width="55" height="55" as="alternateBounds" />
          </mxGeometry>
        </mxCell>
        <mxCell id="KwmrwxW-xq00A47at4ye-112" value="&lt;font face=&quot;Comic Sans MS&quot; style=&quot;font-size: 15px;&quot;&gt;1&lt;/font&gt;" style="shape=partialRectangle;html=1;whiteSpace=wrap;connectable=0;fillColor=#fff2cc;top=0;left=0;bottom=0;right=0;overflow=hidden;strokeColor=#d6b656;" vertex="1" parent="KwmrwxW-xq00A47at4ye-101">
          <mxGeometry x="55" width="56" height="55" as="geometry">
            <mxRectangle width="56" height="55" as="alternateBounds" />
          </mxGeometry>
        </mxCell>
        <mxCell id="KwmrwxW-xq00A47at4ye-102" value="&lt;font face=&quot;Comic Sans MS&quot; style=&quot;font-size: 15px;&quot;&gt;f[1][2]&lt;/font&gt;" style="shape=partialRectangle;html=1;whiteSpace=wrap;connectable=0;fillColor=none;top=0;left=0;bottom=0;right=0;overflow=hidden;" vertex="1" parent="KwmrwxW-xq00A47at4ye-101">
          <mxGeometry x="111" width="53" height="55" as="geometry">
            <mxRectangle width="53" height="55" as="alternateBounds" />
          </mxGeometry>
        </mxCell>
        <mxCell id="KwmrwxW-xq00A47at4ye-103" style="shape=partialRectangle;html=1;whiteSpace=wrap;connectable=0;fillColor=none;top=0;left=0;bottom=0;right=0;overflow=hidden;" vertex="1" parent="KwmrwxW-xq00A47at4ye-101">
          <mxGeometry x="164" width="56" height="55" as="geometry">
            <mxRectangle width="56" height="55" as="alternateBounds" />
          </mxGeometry>
        </mxCell>
        <mxCell id="KwmrwxW-xq00A47at4ye-104" style="shape=partialRectangle;html=1;whiteSpace=wrap;connectable=0;fillColor=none;top=0;left=0;bottom=0;right=0;overflow=hidden;" vertex="1" parent="KwmrwxW-xq00A47at4ye-101">
          <mxGeometry x="220" width="54" height="55" as="geometry">
            <mxRectangle width="54" height="55" as="alternateBounds" />
          </mxGeometry>
        </mxCell>
        <mxCell id="KwmrwxW-xq00A47at4ye-105" style="shape=partialRectangle;html=1;whiteSpace=wrap;connectable=0;fillColor=none;top=0;left=0;bottom=0;right=0;overflow=hidden;" vertex="1" parent="KwmrwxW-xq00A47at4ye-101">
          <mxGeometry x="274" width="55" height="55" as="geometry">
            <mxRectangle width="55" height="55" as="alternateBounds" />
          </mxGeometry>
        </mxCell>
        <mxCell id="KwmrwxW-xq00A47at4ye-120" value="&lt;font style=&quot;font-size: 16px;&quot; face=&quot;Comic Sans MS&quot;&gt;f[1][6]&lt;/font&gt;" style="shape=partialRectangle;html=1;whiteSpace=wrap;connectable=0;fillColor=none;top=0;left=0;bottom=0;right=0;overflow=hidden;" vertex="1" parent="KwmrwxW-xq00A47at4ye-101">
          <mxGeometry x="329" width="52" height="55" as="geometry">
            <mxRectangle width="52" height="55" as="alternateBounds" />
          </mxGeometry>
        </mxCell>
        <mxCell id="KwmrwxW-xq00A47at4ye-136" style="shape=partialRectangle;html=1;whiteSpace=wrap;connectable=0;fillColor=none;top=0;left=0;bottom=0;right=0;overflow=hidden;" vertex="1" parent="KwmrwxW-xq00A47at4ye-101">
          <mxGeometry x="381" width="55" height="55" as="geometry">
            <mxRectangle width="55" height="55" as="alternateBounds" />
          </mxGeometry>
        </mxCell>
        <mxCell id="KwmrwxW-xq00A47at4ye-64" value="" style="shape=tableRow;horizontal=0;startSize=0;swimlaneHead=0;swimlaneBody=0;top=0;left=0;bottom=0;right=0;collapsible=0;dropTarget=0;fillColor=none;points=[[0,0.5],[1,0.5]];portConstraint=eastwest;" vertex="1" parent="KwmrwxW-xq00A47at4ye-63">
          <mxGeometry y="109" width="436" height="54" as="geometry" />
        </mxCell>
        <mxCell id="KwmrwxW-xq00A47at4ye-129" value="&lt;font face=&quot;Comic Sans MS&quot; style=&quot;font-size: 18px;&quot;&gt;2&lt;/font&gt;" style="shape=partialRectangle;html=1;whiteSpace=wrap;connectable=0;fillColor=none;top=0;left=0;bottom=0;right=0;overflow=hidden;" vertex="1" parent="KwmrwxW-xq00A47at4ye-64">
          <mxGeometry width="55" height="54" as="geometry">
            <mxRectangle width="55" height="54" as="alternateBounds" />
          </mxGeometry>
        </mxCell>
        <mxCell id="KwmrwxW-xq00A47at4ye-113" style="shape=partialRectangle;html=1;whiteSpace=wrap;connectable=0;fillColor=none;top=0;left=0;bottom=0;right=0;overflow=hidden;" vertex="1" parent="KwmrwxW-xq00A47at4ye-64">
          <mxGeometry x="55" width="56" height="54" as="geometry">
            <mxRectangle width="56" height="54" as="alternateBounds" />
          </mxGeometry>
        </mxCell>
        <mxCell id="KwmrwxW-xq00A47at4ye-83" value="&lt;font face=&quot;Comic Sans MS&quot; style=&quot;font-size: 16px;&quot;&gt;1&lt;/font&gt;" style="shape=partialRectangle;html=1;whiteSpace=wrap;connectable=0;fillColor=#fff2cc;top=0;left=0;bottom=0;right=0;overflow=hidden;strokeColor=#d6b656;" vertex="1" parent="KwmrwxW-xq00A47at4ye-64">
          <mxGeometry x="111" width="53" height="54" as="geometry">
            <mxRectangle width="53" height="54" as="alternateBounds" />
          </mxGeometry>
        </mxCell>
        <mxCell id="KwmrwxW-xq00A47at4ye-77" value="&lt;font face=&quot;Comic Sans MS&quot; style=&quot;font-size: 16px;&quot;&gt;f[2][3]&lt;/font&gt;" style="shape=partialRectangle;html=1;whiteSpace=wrap;connectable=0;fillColor=none;top=0;left=0;bottom=0;right=0;overflow=hidden;" vertex="1" parent="KwmrwxW-xq00A47at4ye-64">
          <mxGeometry x="164" width="56" height="54" as="geometry">
            <mxRectangle width="56" height="54" as="alternateBounds" />
          </mxGeometry>
        </mxCell>
        <mxCell id="KwmrwxW-xq00A47at4ye-65" value="" style="shape=partialRectangle;html=1;whiteSpace=wrap;connectable=0;fillColor=none;top=0;left=0;bottom=0;right=0;overflow=hidden;" vertex="1" parent="KwmrwxW-xq00A47at4ye-64">
          <mxGeometry x="220" width="54" height="54" as="geometry">
            <mxRectangle width="54" height="54" as="alternateBounds" />
          </mxGeometry>
        </mxCell>
        <mxCell id="KwmrwxW-xq00A47at4ye-66" value="" style="shape=partialRectangle;html=1;whiteSpace=wrap;connectable=0;fillColor=none;top=0;left=0;bottom=0;right=0;overflow=hidden;" vertex="1" parent="KwmrwxW-xq00A47at4ye-64">
          <mxGeometry x="274" width="55" height="54" as="geometry">
            <mxRectangle width="55" height="54" as="alternateBounds" />
          </mxGeometry>
        </mxCell>
        <mxCell id="KwmrwxW-xq00A47at4ye-121" style="shape=partialRectangle;html=1;whiteSpace=wrap;connectable=0;fillColor=none;top=0;left=0;bottom=0;right=0;overflow=hidden;" vertex="1" parent="KwmrwxW-xq00A47at4ye-64">
          <mxGeometry x="329" width="52" height="54" as="geometry">
            <mxRectangle width="52" height="54" as="alternateBounds" />
          </mxGeometry>
        </mxCell>
        <mxCell id="KwmrwxW-xq00A47at4ye-137" style="shape=partialRectangle;html=1;whiteSpace=wrap;connectable=0;fillColor=none;top=0;left=0;bottom=0;right=0;overflow=hidden;" vertex="1" parent="KwmrwxW-xq00A47at4ye-64">
          <mxGeometry x="381" width="55" height="54" as="geometry">
            <mxRectangle width="55" height="54" as="alternateBounds" />
          </mxGeometry>
        </mxCell>
        <mxCell id="KwmrwxW-xq00A47at4ye-68" value="" style="shape=tableRow;horizontal=0;startSize=0;swimlaneHead=0;swimlaneBody=0;top=0;left=0;bottom=0;right=0;collapsible=0;dropTarget=0;fillColor=none;points=[[0,0.5],[1,0.5]];portConstraint=eastwest;" vertex="1" parent="KwmrwxW-xq00A47at4ye-63">
          <mxGeometry y="163" width="436" height="54" as="geometry" />
        </mxCell>
        <mxCell id="KwmrwxW-xq00A47at4ye-130" value="&lt;font face=&quot;Comic Sans MS&quot; style=&quot;font-size: 18px;&quot;&gt;3&lt;/font&gt;" style="shape=partialRectangle;html=1;whiteSpace=wrap;connectable=0;fillColor=none;top=0;left=0;bottom=0;right=0;overflow=hidden;" vertex="1" parent="KwmrwxW-xq00A47at4ye-68">
          <mxGeometry width="55" height="54" as="geometry">
            <mxRectangle width="55" height="54" as="alternateBounds" />
          </mxGeometry>
        </mxCell>
        <mxCell id="KwmrwxW-xq00A47at4ye-114" style="shape=partialRectangle;html=1;whiteSpace=wrap;connectable=0;fillColor=none;top=0;left=0;bottom=0;right=0;overflow=hidden;" vertex="1" parent="KwmrwxW-xq00A47at4ye-68">
          <mxGeometry x="55" width="56" height="54" as="geometry">
            <mxRectangle width="56" height="54" as="alternateBounds" />
          </mxGeometry>
        </mxCell>
        <mxCell id="KwmrwxW-xq00A47at4ye-84" style="shape=partialRectangle;html=1;whiteSpace=wrap;connectable=0;fillColor=none;top=0;left=0;bottom=0;right=0;overflow=hidden;" vertex="1" parent="KwmrwxW-xq00A47at4ye-68">
          <mxGeometry x="111" width="53" height="54" as="geometry">
            <mxRectangle width="53" height="54" as="alternateBounds" />
          </mxGeometry>
        </mxCell>
        <mxCell id="KwmrwxW-xq00A47at4ye-78" value="&lt;font face=&quot;Comic Sans MS&quot; style=&quot;font-size: 16px;&quot;&gt;1&lt;/font&gt;" style="shape=partialRectangle;html=1;whiteSpace=wrap;connectable=0;fillColor=#fff2cc;top=0;left=0;bottom=0;right=0;overflow=hidden;strokeColor=#d6b656;" vertex="1" parent="KwmrwxW-xq00A47at4ye-68">
          <mxGeometry x="164" width="56" height="54" as="geometry">
            <mxRectangle width="56" height="54" as="alternateBounds" />
          </mxGeometry>
        </mxCell>
        <mxCell id="KwmrwxW-xq00A47at4ye-69" value="" style="shape=partialRectangle;html=1;whiteSpace=wrap;connectable=0;fillColor=none;top=0;left=0;bottom=0;right=0;overflow=hidden;" vertex="1" parent="KwmrwxW-xq00A47at4ye-68">
          <mxGeometry x="220" width="54" height="54" as="geometry">
            <mxRectangle width="54" height="54" as="alternateBounds" />
          </mxGeometry>
        </mxCell>
        <mxCell id="KwmrwxW-xq00A47at4ye-70" value="" style="shape=partialRectangle;html=1;whiteSpace=wrap;connectable=0;fillColor=none;top=0;left=0;bottom=0;right=0;overflow=hidden;" vertex="1" parent="KwmrwxW-xq00A47at4ye-68">
          <mxGeometry x="274" width="55" height="54" as="geometry">
            <mxRectangle width="55" height="54" as="alternateBounds" />
          </mxGeometry>
        </mxCell>
        <mxCell id="KwmrwxW-xq00A47at4ye-122" style="shape=partialRectangle;html=1;whiteSpace=wrap;connectable=0;fillColor=none;top=0;left=0;bottom=0;right=0;overflow=hidden;" vertex="1" parent="KwmrwxW-xq00A47at4ye-68">
          <mxGeometry x="329" width="52" height="54" as="geometry">
            <mxRectangle width="52" height="54" as="alternateBounds" />
          </mxGeometry>
        </mxCell>
        <mxCell id="KwmrwxW-xq00A47at4ye-138" style="shape=partialRectangle;html=1;whiteSpace=wrap;connectable=0;fillColor=none;top=0;left=0;bottom=0;right=0;overflow=hidden;" vertex="1" parent="KwmrwxW-xq00A47at4ye-68">
          <mxGeometry x="381" width="55" height="54" as="geometry">
            <mxRectangle width="55" height="54" as="alternateBounds" />
          </mxGeometry>
        </mxCell>
        <mxCell id="KwmrwxW-xq00A47at4ye-72" value="" style="shape=tableRow;horizontal=0;startSize=0;swimlaneHead=0;swimlaneBody=0;top=0;left=0;bottom=0;right=0;collapsible=0;dropTarget=0;fillColor=none;points=[[0,0.5],[1,0.5]];portConstraint=eastwest;" vertex="1" parent="KwmrwxW-xq00A47at4ye-63">
          <mxGeometry y="217" width="436" height="54" as="geometry" />
        </mxCell>
        <mxCell id="KwmrwxW-xq00A47at4ye-131" value="&lt;font style=&quot;font-size: 18px;&quot; face=&quot;Comic Sans MS&quot;&gt;4&lt;/font&gt;" style="shape=partialRectangle;html=1;whiteSpace=wrap;connectable=0;fillColor=none;top=0;left=0;bottom=0;right=0;overflow=hidden;" vertex="1" parent="KwmrwxW-xq00A47at4ye-72">
          <mxGeometry width="55" height="54" as="geometry">
            <mxRectangle width="55" height="54" as="alternateBounds" />
          </mxGeometry>
        </mxCell>
        <mxCell id="KwmrwxW-xq00A47at4ye-115" style="shape=partialRectangle;html=1;whiteSpace=wrap;connectable=0;fillColor=none;top=0;left=0;bottom=0;right=0;overflow=hidden;" vertex="1" parent="KwmrwxW-xq00A47at4ye-72">
          <mxGeometry x="55" width="56" height="54" as="geometry">
            <mxRectangle width="56" height="54" as="alternateBounds" />
          </mxGeometry>
        </mxCell>
        <mxCell id="KwmrwxW-xq00A47at4ye-85" style="shape=partialRectangle;html=1;whiteSpace=wrap;connectable=0;fillColor=none;top=0;left=0;bottom=0;right=0;overflow=hidden;" vertex="1" parent="KwmrwxW-xq00A47at4ye-72">
          <mxGeometry x="111" width="53" height="54" as="geometry">
            <mxRectangle width="53" height="54" as="alternateBounds" />
          </mxGeometry>
        </mxCell>
        <mxCell id="KwmrwxW-xq00A47at4ye-79" style="shape=partialRectangle;html=1;whiteSpace=wrap;connectable=0;fillColor=none;top=0;left=0;bottom=0;right=0;overflow=hidden;" vertex="1" parent="KwmrwxW-xq00A47at4ye-72">
          <mxGeometry x="164" width="56" height="54" as="geometry">
            <mxRectangle width="56" height="54" as="alternateBounds" />
          </mxGeometry>
        </mxCell>
        <mxCell id="KwmrwxW-xq00A47at4ye-73" value="&lt;font face=&quot;Comic Sans MS&quot; style=&quot;font-size: 16px;&quot;&gt;1&lt;/font&gt;" style="shape=partialRectangle;html=1;whiteSpace=wrap;connectable=0;fillColor=#fff2cc;top=0;left=0;bottom=0;right=0;overflow=hidden;strokeColor=#d6b656;" vertex="1" parent="KwmrwxW-xq00A47at4ye-72">
          <mxGeometry x="220" width="54" height="54" as="geometry">
            <mxRectangle width="54" height="54" as="alternateBounds" />
          </mxGeometry>
        </mxCell>
        <mxCell id="KwmrwxW-xq00A47at4ye-74" value="" style="shape=partialRectangle;html=1;whiteSpace=wrap;connectable=0;fillColor=none;top=0;left=0;bottom=0;right=0;overflow=hidden;" vertex="1" parent="KwmrwxW-xq00A47at4ye-72">
          <mxGeometry x="274" width="55" height="54" as="geometry">
            <mxRectangle width="55" height="54" as="alternateBounds" />
          </mxGeometry>
        </mxCell>
        <mxCell id="KwmrwxW-xq00A47at4ye-123" style="shape=partialRectangle;html=1;whiteSpace=wrap;connectable=0;fillColor=none;top=0;left=0;bottom=0;right=0;overflow=hidden;" vertex="1" parent="KwmrwxW-xq00A47at4ye-72">
          <mxGeometry x="329" width="52" height="54" as="geometry">
            <mxRectangle width="52" height="54" as="alternateBounds" />
          </mxGeometry>
        </mxCell>
        <mxCell id="KwmrwxW-xq00A47at4ye-139" style="shape=partialRectangle;html=1;whiteSpace=wrap;connectable=0;fillColor=none;top=0;left=0;bottom=0;right=0;overflow=hidden;" vertex="1" parent="KwmrwxW-xq00A47at4ye-72">
          <mxGeometry x="381" width="55" height="54" as="geometry">
            <mxRectangle width="55" height="54" as="alternateBounds" />
          </mxGeometry>
        </mxCell>
        <mxCell id="KwmrwxW-xq00A47at4ye-86" style="shape=tableRow;horizontal=0;startSize=0;swimlaneHead=0;swimlaneBody=0;top=0;left=0;bottom=0;right=0;collapsible=0;dropTarget=0;fillColor=none;points=[[0,0.5],[1,0.5]];portConstraint=eastwest;" vertex="1" parent="KwmrwxW-xq00A47at4ye-63">
          <mxGeometry y="271" width="436" height="55" as="geometry" />
        </mxCell>
        <mxCell id="KwmrwxW-xq00A47at4ye-132" value="&lt;font style=&quot;font-size: 18px;&quot; face=&quot;Comic Sans MS&quot;&gt;5&lt;/font&gt;" style="shape=partialRectangle;html=1;whiteSpace=wrap;connectable=0;fillColor=none;top=0;left=0;bottom=0;right=0;overflow=hidden;" vertex="1" parent="KwmrwxW-xq00A47at4ye-86">
          <mxGeometry width="55" height="55" as="geometry">
            <mxRectangle width="55" height="55" as="alternateBounds" />
          </mxGeometry>
        </mxCell>
        <mxCell id="KwmrwxW-xq00A47at4ye-116" style="shape=partialRectangle;html=1;whiteSpace=wrap;connectable=0;fillColor=none;top=0;left=0;bottom=0;right=0;overflow=hidden;" vertex="1" parent="KwmrwxW-xq00A47at4ye-86">
          <mxGeometry x="55" width="56" height="55" as="geometry">
            <mxRectangle width="56" height="55" as="alternateBounds" />
          </mxGeometry>
        </mxCell>
        <mxCell id="KwmrwxW-xq00A47at4ye-87" style="shape=partialRectangle;html=1;whiteSpace=wrap;connectable=0;fillColor=none;top=0;left=0;bottom=0;right=0;overflow=hidden;" vertex="1" parent="KwmrwxW-xq00A47at4ye-86">
          <mxGeometry x="111" width="53" height="55" as="geometry">
            <mxRectangle width="53" height="55" as="alternateBounds" />
          </mxGeometry>
        </mxCell>
        <mxCell id="KwmrwxW-xq00A47at4ye-88" style="shape=partialRectangle;html=1;whiteSpace=wrap;connectable=0;fillColor=none;top=0;left=0;bottom=0;right=0;overflow=hidden;" vertex="1" parent="KwmrwxW-xq00A47at4ye-86">
          <mxGeometry x="164" width="56" height="55" as="geometry">
            <mxRectangle width="56" height="55" as="alternateBounds" />
          </mxGeometry>
        </mxCell>
        <mxCell id="KwmrwxW-xq00A47at4ye-89" style="shape=partialRectangle;html=1;whiteSpace=wrap;connectable=0;fillColor=none;top=0;left=0;bottom=0;right=0;overflow=hidden;" vertex="1" parent="KwmrwxW-xq00A47at4ye-86">
          <mxGeometry x="220" width="54" height="55" as="geometry">
            <mxRectangle width="54" height="55" as="alternateBounds" />
          </mxGeometry>
        </mxCell>
        <mxCell id="KwmrwxW-xq00A47at4ye-90" value="&lt;font style=&quot;font-size: 16px;&quot; face=&quot;Comic Sans MS&quot;&gt;1&lt;/font&gt;" style="shape=partialRectangle;html=1;whiteSpace=wrap;connectable=0;fillColor=#fff2cc;top=0;left=0;bottom=0;right=0;overflow=hidden;strokeColor=#d6b656;" vertex="1" parent="KwmrwxW-xq00A47at4ye-86">
          <mxGeometry x="274" width="55" height="55" as="geometry">
            <mxRectangle width="55" height="55" as="alternateBounds" />
          </mxGeometry>
        </mxCell>
        <mxCell id="KwmrwxW-xq00A47at4ye-124" style="shape=partialRectangle;html=1;whiteSpace=wrap;connectable=0;fillColor=none;top=0;left=0;bottom=0;right=0;overflow=hidden;" vertex="1" parent="KwmrwxW-xq00A47at4ye-86">
          <mxGeometry x="329" width="52" height="55" as="geometry">
            <mxRectangle width="52" height="55" as="alternateBounds" />
          </mxGeometry>
        </mxCell>
        <mxCell id="KwmrwxW-xq00A47at4ye-140" style="shape=partialRectangle;html=1;whiteSpace=wrap;connectable=0;fillColor=none;top=0;left=0;bottom=0;right=0;overflow=hidden;" vertex="1" parent="KwmrwxW-xq00A47at4ye-86">
          <mxGeometry x="381" width="55" height="55" as="geometry">
            <mxRectangle width="55" height="55" as="alternateBounds" />
          </mxGeometry>
        </mxCell>
        <mxCell id="KwmrwxW-xq00A47at4ye-91" style="shape=tableRow;horizontal=0;startSize=0;swimlaneHead=0;swimlaneBody=0;top=0;left=0;bottom=0;right=0;collapsible=0;dropTarget=0;fillColor=none;points=[[0,0.5],[1,0.5]];portConstraint=eastwest;" vertex="1" parent="KwmrwxW-xq00A47at4ye-63">
          <mxGeometry y="326" width="436" height="54" as="geometry" />
        </mxCell>
        <mxCell id="KwmrwxW-xq00A47at4ye-133" value="&lt;font face=&quot;Comic Sans MS&quot; style=&quot;font-size: 18px;&quot;&gt;6&lt;/font&gt;" style="shape=partialRectangle;html=1;whiteSpace=wrap;connectable=0;fillColor=none;top=0;left=0;bottom=0;right=0;overflow=hidden;" vertex="1" parent="KwmrwxW-xq00A47at4ye-91">
          <mxGeometry width="55" height="54" as="geometry">
            <mxRectangle width="55" height="54" as="alternateBounds" />
          </mxGeometry>
        </mxCell>
        <mxCell id="KwmrwxW-xq00A47at4ye-117" style="shape=partialRectangle;html=1;whiteSpace=wrap;connectable=0;fillColor=none;top=0;left=0;bottom=0;right=0;overflow=hidden;" vertex="1" parent="KwmrwxW-xq00A47at4ye-91">
          <mxGeometry x="55" width="56" height="54" as="geometry">
            <mxRectangle width="56" height="54" as="alternateBounds" />
          </mxGeometry>
        </mxCell>
        <mxCell id="KwmrwxW-xq00A47at4ye-92" style="shape=partialRectangle;html=1;whiteSpace=wrap;connectable=0;fillColor=none;top=0;left=0;bottom=0;right=0;overflow=hidden;" vertex="1" parent="KwmrwxW-xq00A47at4ye-91">
          <mxGeometry x="111" width="53" height="54" as="geometry">
            <mxRectangle width="53" height="54" as="alternateBounds" />
          </mxGeometry>
        </mxCell>
        <mxCell id="KwmrwxW-xq00A47at4ye-93" style="shape=partialRectangle;html=1;whiteSpace=wrap;connectable=0;fillColor=none;top=0;left=0;bottom=0;right=0;overflow=hidden;" vertex="1" parent="KwmrwxW-xq00A47at4ye-91">
          <mxGeometry x="164" width="56" height="54" as="geometry">
            <mxRectangle width="56" height="54" as="alternateBounds" />
          </mxGeometry>
        </mxCell>
        <mxCell id="KwmrwxW-xq00A47at4ye-94" style="shape=partialRectangle;html=1;whiteSpace=wrap;connectable=0;fillColor=none;top=0;left=0;bottom=0;right=0;overflow=hidden;" vertex="1" parent="KwmrwxW-xq00A47at4ye-91">
          <mxGeometry x="220" width="54" height="54" as="geometry">
            <mxRectangle width="54" height="54" as="alternateBounds" />
          </mxGeometry>
        </mxCell>
        <mxCell id="KwmrwxW-xq00A47at4ye-95" style="shape=partialRectangle;html=1;whiteSpace=wrap;connectable=0;fillColor=none;top=0;left=0;bottom=0;right=0;overflow=hidden;" vertex="1" parent="KwmrwxW-xq00A47at4ye-91">
          <mxGeometry x="274" width="55" height="54" as="geometry">
            <mxRectangle width="55" height="54" as="alternateBounds" />
          </mxGeometry>
        </mxCell>
        <mxCell id="KwmrwxW-xq00A47at4ye-125" value="&lt;font face=&quot;Comic Sans MS&quot; style=&quot;font-size: 16px;&quot;&gt;1&lt;/font&gt;" style="shape=partialRectangle;html=1;whiteSpace=wrap;connectable=0;fillColor=#fff2cc;top=0;left=0;bottom=0;right=0;overflow=hidden;strokeColor=#d6b656;" vertex="1" parent="KwmrwxW-xq00A47at4ye-91">
          <mxGeometry x="329" width="52" height="54" as="geometry">
            <mxRectangle width="52" height="54" as="alternateBounds" />
          </mxGeometry>
        </mxCell>
        <mxCell id="KwmrwxW-xq00A47at4ye-141" style="shape=partialRectangle;html=1;whiteSpace=wrap;connectable=0;fillColor=none;top=0;left=0;bottom=0;right=0;overflow=hidden;" vertex="1" parent="KwmrwxW-xq00A47at4ye-91">
          <mxGeometry x="381" width="55" height="54" as="geometry">
            <mxRectangle width="55" height="54" as="alternateBounds" />
          </mxGeometry>
        </mxCell>
        <mxCell id="KwmrwxW-xq00A47at4ye-96" style="shape=tableRow;horizontal=0;startSize=0;swimlaneHead=0;swimlaneBody=0;top=0;left=0;bottom=0;right=0;collapsible=0;dropTarget=0;fillColor=none;points=[[0,0.5],[1,0.5]];portConstraint=eastwest;" vertex="1" parent="KwmrwxW-xq00A47at4ye-63">
          <mxGeometry y="380" width="436" height="54" as="geometry" />
        </mxCell>
        <mxCell id="KwmrwxW-xq00A47at4ye-134" value="&lt;font face=&quot;Comic Sans MS&quot; style=&quot;font-size: 18px;&quot;&gt;7&lt;/font&gt;" style="shape=partialRectangle;html=1;whiteSpace=wrap;connectable=0;fillColor=none;top=0;left=0;bottom=0;right=0;overflow=hidden;" vertex="1" parent="KwmrwxW-xq00A47at4ye-96">
          <mxGeometry width="55" height="54" as="geometry">
            <mxRectangle width="55" height="54" as="alternateBounds" />
          </mxGeometry>
        </mxCell>
        <mxCell id="KwmrwxW-xq00A47at4ye-118" style="shape=partialRectangle;html=1;whiteSpace=wrap;connectable=0;fillColor=none;top=0;left=0;bottom=0;right=0;overflow=hidden;" vertex="1" parent="KwmrwxW-xq00A47at4ye-96">
          <mxGeometry x="55" width="56" height="54" as="geometry">
            <mxRectangle width="56" height="54" as="alternateBounds" />
          </mxGeometry>
        </mxCell>
        <mxCell id="KwmrwxW-xq00A47at4ye-97" style="shape=partialRectangle;html=1;whiteSpace=wrap;connectable=0;fillColor=none;top=0;left=0;bottom=0;right=0;overflow=hidden;" vertex="1" parent="KwmrwxW-xq00A47at4ye-96">
          <mxGeometry x="111" width="53" height="54" as="geometry">
            <mxRectangle width="53" height="54" as="alternateBounds" />
          </mxGeometry>
        </mxCell>
        <mxCell id="KwmrwxW-xq00A47at4ye-98" style="shape=partialRectangle;html=1;whiteSpace=wrap;connectable=0;fillColor=none;top=0;left=0;bottom=0;right=0;overflow=hidden;" vertex="1" parent="KwmrwxW-xq00A47at4ye-96">
          <mxGeometry x="164" width="56" height="54" as="geometry">
            <mxRectangle width="56" height="54" as="alternateBounds" />
          </mxGeometry>
        </mxCell>
        <mxCell id="KwmrwxW-xq00A47at4ye-99" style="shape=partialRectangle;html=1;whiteSpace=wrap;connectable=0;fillColor=none;top=0;left=0;bottom=0;right=0;overflow=hidden;" vertex="1" parent="KwmrwxW-xq00A47at4ye-96">
          <mxGeometry x="220" width="54" height="54" as="geometry">
            <mxRectangle width="54" height="54" as="alternateBounds" />
          </mxGeometry>
        </mxCell>
        <mxCell id="KwmrwxW-xq00A47at4ye-100" style="shape=partialRectangle;html=1;whiteSpace=wrap;connectable=0;fillColor=none;top=0;left=0;bottom=0;right=0;overflow=hidden;" vertex="1" parent="KwmrwxW-xq00A47at4ye-96">
          <mxGeometry x="274" width="55" height="54" as="geometry">
            <mxRectangle width="55" height="54" as="alternateBounds" />
          </mxGeometry>
        </mxCell>
        <mxCell id="KwmrwxW-xq00A47at4ye-126" style="shape=partialRectangle;html=1;whiteSpace=wrap;connectable=0;fillColor=none;top=0;left=0;bottom=0;right=0;overflow=hidden;" vertex="1" parent="KwmrwxW-xq00A47at4ye-96">
          <mxGeometry x="329" width="52" height="54" as="geometry">
            <mxRectangle width="52" height="54" as="alternateBounds" />
          </mxGeometry>
        </mxCell>
        <mxCell id="KwmrwxW-xq00A47at4ye-142" value="&lt;font style=&quot;font-size: 16px;&quot; face=&quot;Comic Sans MS&quot;&gt;1&lt;/font&gt;" style="shape=partialRectangle;html=1;whiteSpace=wrap;connectable=0;fillColor=#fff2cc;top=0;left=0;bottom=0;right=0;overflow=hidden;strokeColor=#d6b656;" vertex="1" parent="KwmrwxW-xq00A47at4ye-96">
          <mxGeometry x="381" width="55" height="54" as="geometry">
            <mxRectangle width="55" height="54" as="alternateBounds" />
          </mxGeometry>
        </mxCell>
        <mxCell id="KwmrwxW-xq00A47at4ye-149" value="" style="endArrow=classic;html=1;rounded=1;fontSize=20;exitX=0.504;exitY=-0.014;exitDx=0;exitDy=0;exitPerimeter=0;entryX=1.007;entryY=1.007;entryDx=0;entryDy=0;entryPerimeter=0;fillColor=#f8cecc;strokeColor=#b85450;strokeWidth=4;" edge="1" parent="KwmrwxW-xq00A47at4ye-63" source="KwmrwxW-xq00A47at4ye-68" target="KwmrwxW-xq00A47at4ye-91">
          <mxGeometry width="50" height="50" relative="1" as="geometry">
            <mxPoint x="340" y="200" as="sourcePoint" />
            <mxPoint x="340" y="180" as="targetPoint" />
          </mxGeometry>
        </mxCell>
        <mxCell id="KwmrwxW-xq00A47at4ye-145" value="&lt;font face=&quot;Comic Sans MS&quot;&gt;i&lt;/font&gt;" style="text;html=1;align=center;verticalAlign=middle;resizable=0;points=[];autosize=1;strokeColor=#6c8ebf;fillColor=#dae8fc;fontSize=20;" vertex="1" parent="1">
          <mxGeometry x="114" y="336" width="26" height="38" as="geometry" />
        </mxCell>
        <mxCell id="KwmrwxW-xq00A47at4ye-146" value="&lt;font face=&quot;Comic Sans MS&quot;&gt;j&lt;/font&gt;" style="text;html=1;align=center;verticalAlign=middle;resizable=0;points=[];autosize=1;strokeColor=#6c8ebf;fillColor=#dae8fc;fontSize=20;" vertex="1" parent="1">
          <mxGeometry x="358" y="96" width="28" height="38" as="geometry" />
        </mxCell>
        <mxCell id="KwmrwxW-xq00A47at4ye-147" value="&lt;font style=&quot;font-size: 20px;&quot; face=&quot;Comic Sans MS&quot;&gt;f[i][j] = min(f[i][k] + f[k+1][j])&lt;/font&gt;" style="text;html=1;align=center;verticalAlign=middle;resizable=0;points=[];autosize=1;strokeColor=#b85450;fillColor=#f8cecc;fontSize=20;" vertex="1" parent="1">
          <mxGeometry x="220" y="578" width="298" height="38" as="geometry" />
        </mxCell>
        <mxCell id="KwmrwxW-xq00A47at4ye-154" value="" style="endArrow=classic;html=1;rounded=0;fontSize=20;fillColor=#d5e8d4;strokeColor=#82b366;snapToPoint=1;strokeWidth=3;" edge="1" parent="1">
          <mxGeometry width="50" height="50" relative="1" as="geometry">
            <mxPoint x="476" y="219.70999999999998" as="sourcePoint" />
            <mxPoint x="332" y="219.70999999999998" as="targetPoint" />
          </mxGeometry>
        </mxCell>
        <mxCell id="KwmrwxW-xq00A47at4ye-156" value="" style="endArrow=classic;html=1;rounded=0;fontSize=20;fillColor=#d5e8d4;strokeColor=#82b366;snapToPoint=1;strokeWidth=3;" edge="1" parent="1">
          <mxGeometry width="50" height="50" relative="1" as="geometry">
            <mxPoint x="508" y="242" as="sourcePoint" />
            <mxPoint x="508" y="400" as="targetPoint" />
          </mxGeometry>
        </mxCell>
        <mxCell id="KwmrwxW-xq00A47at4ye-157" value="" style="rounded=1;whiteSpace=wrap;html=1;fontFamily=Comic Sans MS;fontSize=16;fillColor=none;strokeColor=#FF9999;strokeWidth=2;" vertex="1" parent="1">
          <mxGeometry x="314" y="254" width="56" height="40" as="geometry" />
        </mxCell>
        <mxCell id="KwmrwxW-xq00A47at4ye-158" value="" style="rounded=1;whiteSpace=wrap;html=1;fontFamily=Comic Sans MS;fontSize=16;fillColor=none;strokeColor=#00CC66;strokeWidth=2;" vertex="1" parent="1">
          <mxGeometry x="482" y="200" width="58" height="40" as="geometry" />
        </mxCell>
        <mxCell id="KwmrwxW-xq00A47at4ye-159" value="&lt;font style=&quot;font-size: 20px;&quot; face=&quot;Comic Sans MS&quot;&gt;以长度len为遍历基础&lt;/font&gt;" style="text;html=1;align=center;verticalAlign=middle;resizable=0;points=[];autosize=1;strokeColor=#82b366;fillColor=#d5e8d4;fontSize=20;" vertex="1" parent="1">
          <mxGeometry x="266" y="622" width="206" height="38" as="geometry" />
        </mxCell>
        <mxCell id="KwmrwxW-xq00A47at4ye-244" value="" style="endArrow=classic;html=1;rounded=0;fontSize=20;fillColor=#fff2cc;strokeColor=#d6b656;snapToPoint=1;strokeWidth=3;" edge="1" parent="1">
          <mxGeometry width="50" height="50" relative="1" as="geometry">
            <mxPoint x="142" y="204" as="sourcePoint" />
            <mxPoint x="226" y="204" as="targetPoint" />
          </mxGeometry>
        </mxCell>
        <mxCell id="KwmrwxW-xq00A47at4ye-245" value="&lt;font face=&quot;Comic Sans MS&quot;&gt;dp[i][i]初始化&lt;/font&gt;" style="text;html=1;align=center;verticalAlign=middle;resizable=0;points=[];autosize=1;strokeColor=#d6b656;fillColor=#fff2cc;fontSize=20;" vertex="1" parent="1">
          <mxGeometry x="-10" y="186" width="144" height="38" as="geometry" />
        </mxCell>
        <mxCell id="KwmrwxW-xq00A47at4ye-248" value="" style="shape=table;html=1;whiteSpace=wrap;startSize=0;container=1;collapsible=0;childLayout=tableLayout;swimlaneLine=1;" vertex="1" parent="1">
          <mxGeometry x="649" y="134" width="438.9999999999991" height="434" as="geometry" />
        </mxCell>
        <mxCell id="KwmrwxW-xq00A47at4ye-249" style="shape=tableRow;horizontal=0;startSize=0;swimlaneHead=0;swimlaneBody=0;top=0;left=0;bottom=0;right=0;collapsible=0;dropTarget=0;fillColor=none;points=[[0,0.5],[1,0.5]];portConstraint=eastwest;" vertex="1" parent="KwmrwxW-xq00A47at4ye-248">
          <mxGeometry width="438.9999999999991" height="54" as="geometry" />
        </mxCell>
        <mxCell id="KwmrwxW-xq00A47at4ye-250" value="&lt;font style=&quot;font-size: 18px;&quot; face=&quot;Comic Sans MS&quot;&gt;0&lt;/font&gt;" style="shape=partialRectangle;html=1;whiteSpace=wrap;connectable=0;fillColor=none;top=0;left=0;bottom=0;right=0;overflow=hidden;" vertex="1" parent="KwmrwxW-xq00A47at4ye-249">
          <mxGeometry width="55" height="54" as="geometry">
            <mxRectangle width="55" height="54" as="alternateBounds" />
          </mxGeometry>
        </mxCell>
        <mxCell id="KwmrwxW-xq00A47at4ye-251" value="&lt;font style=&quot;font-size: 18px;&quot;&gt;1&lt;/font&gt;" style="shape=partialRectangle;html=1;whiteSpace=wrap;connectable=0;fillColor=none;top=0;left=0;bottom=0;right=0;overflow=hidden;" vertex="1" parent="KwmrwxW-xq00A47at4ye-249">
          <mxGeometry x="55" width="56" height="54" as="geometry">
            <mxRectangle width="56" height="54" as="alternateBounds" />
          </mxGeometry>
        </mxCell>
        <mxCell id="KwmrwxW-xq00A47at4ye-252" value="&lt;font style=&quot;font-size: 18px;&quot; face=&quot;Comic Sans MS&quot;&gt;2&lt;/font&gt;" style="shape=partialRectangle;html=1;whiteSpace=wrap;connectable=0;fillColor=none;top=0;left=0;bottom=0;right=0;overflow=hidden;" vertex="1" parent="KwmrwxW-xq00A47at4ye-249">
          <mxGeometry x="111" width="53" height="54" as="geometry">
            <mxRectangle width="53" height="54" as="alternateBounds" />
          </mxGeometry>
        </mxCell>
        <mxCell id="KwmrwxW-xq00A47at4ye-253" value="&lt;font style=&quot;font-size: 18px;&quot;&gt;3&lt;/font&gt;" style="shape=partialRectangle;html=1;whiteSpace=wrap;connectable=0;fillColor=none;top=0;left=0;bottom=0;right=0;overflow=hidden;" vertex="1" parent="KwmrwxW-xq00A47at4ye-249">
          <mxGeometry x="164" width="56" height="54" as="geometry">
            <mxRectangle width="56" height="54" as="alternateBounds" />
          </mxGeometry>
        </mxCell>
        <mxCell id="KwmrwxW-xq00A47at4ye-254" value="&lt;font face=&quot;Comic Sans MS&quot; style=&quot;font-size: 18px;&quot;&gt;4&lt;/font&gt;" style="shape=partialRectangle;html=1;whiteSpace=wrap;connectable=0;fillColor=none;top=0;left=0;bottom=0;right=0;overflow=hidden;" vertex="1" parent="KwmrwxW-xq00A47at4ye-249">
          <mxGeometry x="220" width="54" height="54" as="geometry">
            <mxRectangle width="54" height="54" as="alternateBounds" />
          </mxGeometry>
        </mxCell>
        <mxCell id="KwmrwxW-xq00A47at4ye-255" value="&lt;font face=&quot;Comic Sans MS&quot; style=&quot;font-size: 18px;&quot;&gt;5&lt;/font&gt;" style="shape=partialRectangle;html=1;whiteSpace=wrap;connectable=0;fillColor=none;top=0;left=0;bottom=0;right=0;overflow=hidden;" vertex="1" parent="KwmrwxW-xq00A47at4ye-249">
          <mxGeometry x="274" width="55" height="54" as="geometry">
            <mxRectangle width="55" height="54" as="alternateBounds" />
          </mxGeometry>
        </mxCell>
        <mxCell id="KwmrwxW-xq00A47at4ye-256" value="&lt;font face=&quot;Comic Sans MS&quot; style=&quot;font-size: 18px;&quot;&gt;6&lt;/font&gt;" style="shape=partialRectangle;html=1;whiteSpace=wrap;connectable=0;fillColor=none;top=0;left=0;bottom=0;right=0;overflow=hidden;" vertex="1" parent="KwmrwxW-xq00A47at4ye-249">
          <mxGeometry x="329" width="54" height="54" as="geometry">
            <mxRectangle width="54" height="54" as="alternateBounds" />
          </mxGeometry>
        </mxCell>
        <mxCell id="KwmrwxW-xq00A47at4ye-257" value="&lt;font style=&quot;font-size: 18px;&quot; face=&quot;Comic Sans MS&quot;&gt;7&lt;/font&gt;" style="shape=partialRectangle;html=1;whiteSpace=wrap;connectable=0;fillColor=none;top=0;left=0;bottom=0;right=0;overflow=hidden;" vertex="1" parent="KwmrwxW-xq00A47at4ye-249">
          <mxGeometry x="383" width="56" height="54" as="geometry">
            <mxRectangle width="56" height="54" as="alternateBounds" />
          </mxGeometry>
        </mxCell>
        <mxCell id="KwmrwxW-xq00A47at4ye-258" style="shape=tableRow;horizontal=0;startSize=0;swimlaneHead=0;swimlaneBody=0;top=0;left=0;bottom=0;right=0;collapsible=0;dropTarget=0;fillColor=none;points=[[0,0.5],[1,0.5]];portConstraint=eastwest;" vertex="1" parent="KwmrwxW-xq00A47at4ye-248">
          <mxGeometry y="54" width="438.9999999999991" height="55" as="geometry" />
        </mxCell>
        <mxCell id="KwmrwxW-xq00A47at4ye-259" value="&lt;font face=&quot;Comic Sans MS&quot; style=&quot;font-size: 18px;&quot;&gt;1&lt;/font&gt;" style="shape=partialRectangle;html=1;whiteSpace=wrap;connectable=0;fillColor=none;top=0;left=0;bottom=0;right=0;overflow=hidden;" vertex="1" parent="KwmrwxW-xq00A47at4ye-258">
          <mxGeometry width="55" height="55" as="geometry">
            <mxRectangle width="55" height="55" as="alternateBounds" />
          </mxGeometry>
        </mxCell>
        <mxCell id="KwmrwxW-xq00A47at4ye-260" value="&lt;font face=&quot;Comic Sans MS&quot; style=&quot;font-size: 15px;&quot;&gt;1&lt;/font&gt;" style="shape=partialRectangle;html=1;whiteSpace=wrap;connectable=0;fillColor=#fff2cc;top=0;left=0;bottom=0;right=0;overflow=hidden;strokeColor=#d6b656;" vertex="1" parent="KwmrwxW-xq00A47at4ye-258">
          <mxGeometry x="55" width="56" height="55" as="geometry">
            <mxRectangle width="56" height="55" as="alternateBounds" />
          </mxGeometry>
        </mxCell>
        <mxCell id="KwmrwxW-xq00A47at4ye-261" value="" style="shape=partialRectangle;html=1;whiteSpace=wrap;connectable=0;fillColor=none;top=0;left=0;bottom=0;right=0;overflow=hidden;" vertex="1" parent="KwmrwxW-xq00A47at4ye-258">
          <mxGeometry x="111" width="53" height="55" as="geometry">
            <mxRectangle width="53" height="55" as="alternateBounds" />
          </mxGeometry>
        </mxCell>
        <mxCell id="KwmrwxW-xq00A47at4ye-262" style="shape=partialRectangle;html=1;whiteSpace=wrap;connectable=0;fillColor=none;top=0;left=0;bottom=0;right=0;overflow=hidden;" vertex="1" parent="KwmrwxW-xq00A47at4ye-258">
          <mxGeometry x="164" width="56" height="55" as="geometry">
            <mxRectangle width="56" height="55" as="alternateBounds" />
          </mxGeometry>
        </mxCell>
        <mxCell id="KwmrwxW-xq00A47at4ye-263" style="shape=partialRectangle;html=1;whiteSpace=wrap;connectable=0;fillColor=none;top=0;left=0;bottom=0;right=0;overflow=hidden;" vertex="1" parent="KwmrwxW-xq00A47at4ye-258">
          <mxGeometry x="220" width="54" height="55" as="geometry">
            <mxRectangle width="54" height="55" as="alternateBounds" />
          </mxGeometry>
        </mxCell>
        <mxCell id="KwmrwxW-xq00A47at4ye-264" style="shape=partialRectangle;html=1;whiteSpace=wrap;connectable=0;fillColor=none;top=0;left=0;bottom=0;right=0;overflow=hidden;" vertex="1" parent="KwmrwxW-xq00A47at4ye-258">
          <mxGeometry x="274" width="55" height="55" as="geometry">
            <mxRectangle width="55" height="55" as="alternateBounds" />
          </mxGeometry>
        </mxCell>
        <mxCell id="KwmrwxW-xq00A47at4ye-265" value="&lt;font style=&quot;font-size: 16px;&quot; face=&quot;Comic Sans MS&quot;&gt;f[1][6]&lt;/font&gt;" style="shape=partialRectangle;html=1;whiteSpace=wrap;connectable=0;fillColor=none;top=0;left=0;bottom=0;right=0;overflow=hidden;" vertex="1" parent="KwmrwxW-xq00A47at4ye-258">
          <mxGeometry x="329" width="54" height="55" as="geometry">
            <mxRectangle width="54" height="55" as="alternateBounds" />
          </mxGeometry>
        </mxCell>
        <mxCell id="KwmrwxW-xq00A47at4ye-266" style="shape=partialRectangle;html=1;whiteSpace=wrap;connectable=0;fillColor=none;top=0;left=0;bottom=0;right=0;overflow=hidden;" vertex="1" parent="KwmrwxW-xq00A47at4ye-258">
          <mxGeometry x="383" width="56" height="55" as="geometry">
            <mxRectangle width="56" height="55" as="alternateBounds" />
          </mxGeometry>
        </mxCell>
        <mxCell id="KwmrwxW-xq00A47at4ye-267" value="" style="shape=tableRow;horizontal=0;startSize=0;swimlaneHead=0;swimlaneBody=0;top=0;left=0;bottom=0;right=0;collapsible=0;dropTarget=0;fillColor=none;points=[[0,0.5],[1,0.5]];portConstraint=eastwest;" vertex="1" parent="KwmrwxW-xq00A47at4ye-248">
          <mxGeometry y="109" width="438.9999999999991" height="54" as="geometry" />
        </mxCell>
        <mxCell id="KwmrwxW-xq00A47at4ye-268" value="&lt;font face=&quot;Comic Sans MS&quot; style=&quot;font-size: 18px;&quot;&gt;2&lt;/font&gt;" style="shape=partialRectangle;html=1;whiteSpace=wrap;connectable=0;fillColor=none;top=0;left=0;bottom=0;right=0;overflow=hidden;" vertex="1" parent="KwmrwxW-xq00A47at4ye-267">
          <mxGeometry width="55" height="54" as="geometry">
            <mxRectangle width="55" height="54" as="alternateBounds" />
          </mxGeometry>
        </mxCell>
        <mxCell id="KwmrwxW-xq00A47at4ye-269" style="shape=partialRectangle;html=1;whiteSpace=wrap;connectable=0;fillColor=none;top=0;left=0;bottom=0;right=0;overflow=hidden;" vertex="1" parent="KwmrwxW-xq00A47at4ye-267">
          <mxGeometry x="55" width="56" height="54" as="geometry">
            <mxRectangle width="56" height="54" as="alternateBounds" />
          </mxGeometry>
        </mxCell>
        <mxCell id="KwmrwxW-xq00A47at4ye-270" value="&lt;font face=&quot;Comic Sans MS&quot; style=&quot;font-size: 16px;&quot;&gt;1&lt;/font&gt;" style="shape=partialRectangle;html=1;whiteSpace=wrap;connectable=0;fillColor=#fff2cc;top=0;left=0;bottom=0;right=0;overflow=hidden;strokeColor=#d6b656;" vertex="1" parent="KwmrwxW-xq00A47at4ye-267">
          <mxGeometry x="111" width="53" height="54" as="geometry">
            <mxRectangle width="53" height="54" as="alternateBounds" />
          </mxGeometry>
        </mxCell>
        <mxCell id="KwmrwxW-xq00A47at4ye-271" value="" style="shape=partialRectangle;html=1;whiteSpace=wrap;connectable=0;fillColor=none;top=0;left=0;bottom=0;right=0;overflow=hidden;" vertex="1" parent="KwmrwxW-xq00A47at4ye-267">
          <mxGeometry x="164" width="56" height="54" as="geometry">
            <mxRectangle width="56" height="54" as="alternateBounds" />
          </mxGeometry>
        </mxCell>
        <mxCell id="KwmrwxW-xq00A47at4ye-272" value="" style="shape=partialRectangle;html=1;whiteSpace=wrap;connectable=0;fillColor=none;top=0;left=0;bottom=0;right=0;overflow=hidden;" vertex="1" parent="KwmrwxW-xq00A47at4ye-267">
          <mxGeometry x="220" width="54" height="54" as="geometry">
            <mxRectangle width="54" height="54" as="alternateBounds" />
          </mxGeometry>
        </mxCell>
        <mxCell id="KwmrwxW-xq00A47at4ye-273" value="" style="shape=partialRectangle;html=1;whiteSpace=wrap;connectable=0;fillColor=none;top=0;left=0;bottom=0;right=0;overflow=hidden;" vertex="1" parent="KwmrwxW-xq00A47at4ye-267">
          <mxGeometry x="274" width="55" height="54" as="geometry">
            <mxRectangle width="55" height="54" as="alternateBounds" />
          </mxGeometry>
        </mxCell>
        <mxCell id="KwmrwxW-xq00A47at4ye-274" style="shape=partialRectangle;html=1;whiteSpace=wrap;connectable=0;fillColor=none;top=0;left=0;bottom=0;right=0;overflow=hidden;" vertex="1" parent="KwmrwxW-xq00A47at4ye-267">
          <mxGeometry x="329" width="54" height="54" as="geometry">
            <mxRectangle width="54" height="54" as="alternateBounds" />
          </mxGeometry>
        </mxCell>
        <mxCell id="KwmrwxW-xq00A47at4ye-275" style="shape=partialRectangle;html=1;whiteSpace=wrap;connectable=0;fillColor=none;top=0;left=0;bottom=0;right=0;overflow=hidden;" vertex="1" parent="KwmrwxW-xq00A47at4ye-267">
          <mxGeometry x="383" width="56" height="54" as="geometry">
            <mxRectangle width="56" height="54" as="alternateBounds" />
          </mxGeometry>
        </mxCell>
        <mxCell id="KwmrwxW-xq00A47at4ye-276" value="" style="shape=tableRow;horizontal=0;startSize=0;swimlaneHead=0;swimlaneBody=0;top=0;left=0;bottom=0;right=0;collapsible=0;dropTarget=0;fillColor=none;points=[[0,0.5],[1,0.5]];portConstraint=eastwest;" vertex="1" parent="KwmrwxW-xq00A47at4ye-248">
          <mxGeometry y="163" width="438.9999999999991" height="54" as="geometry" />
        </mxCell>
        <mxCell id="KwmrwxW-xq00A47at4ye-277" value="&lt;font face=&quot;Comic Sans MS&quot; style=&quot;font-size: 18px;&quot;&gt;3&lt;/font&gt;" style="shape=partialRectangle;html=1;whiteSpace=wrap;connectable=0;fillColor=none;top=0;left=0;bottom=0;right=0;overflow=hidden;" vertex="1" parent="KwmrwxW-xq00A47at4ye-276">
          <mxGeometry width="55" height="54" as="geometry">
            <mxRectangle width="55" height="54" as="alternateBounds" />
          </mxGeometry>
        </mxCell>
        <mxCell id="KwmrwxW-xq00A47at4ye-278" style="shape=partialRectangle;html=1;whiteSpace=wrap;connectable=0;fillColor=none;top=0;left=0;bottom=0;right=0;overflow=hidden;" vertex="1" parent="KwmrwxW-xq00A47at4ye-276">
          <mxGeometry x="55" width="56" height="54" as="geometry">
            <mxRectangle width="56" height="54" as="alternateBounds" />
          </mxGeometry>
        </mxCell>
        <mxCell id="KwmrwxW-xq00A47at4ye-279" style="shape=partialRectangle;html=1;whiteSpace=wrap;connectable=0;fillColor=none;top=0;left=0;bottom=0;right=0;overflow=hidden;" vertex="1" parent="KwmrwxW-xq00A47at4ye-276">
          <mxGeometry x="111" width="53" height="54" as="geometry">
            <mxRectangle width="53" height="54" as="alternateBounds" />
          </mxGeometry>
        </mxCell>
        <mxCell id="KwmrwxW-xq00A47at4ye-280" value="&lt;font face=&quot;Comic Sans MS&quot; style=&quot;font-size: 16px;&quot;&gt;1&lt;/font&gt;" style="shape=partialRectangle;html=1;whiteSpace=wrap;connectable=0;fillColor=#fff2cc;top=0;left=0;bottom=0;right=0;overflow=hidden;strokeColor=#d6b656;" vertex="1" parent="KwmrwxW-xq00A47at4ye-276">
          <mxGeometry x="164" width="56" height="54" as="geometry">
            <mxRectangle width="56" height="54" as="alternateBounds" />
          </mxGeometry>
        </mxCell>
        <mxCell id="KwmrwxW-xq00A47at4ye-281" value="" style="shape=partialRectangle;html=1;whiteSpace=wrap;connectable=0;fillColor=none;top=0;left=0;bottom=0;right=0;overflow=hidden;" vertex="1" parent="KwmrwxW-xq00A47at4ye-276">
          <mxGeometry x="220" width="54" height="54" as="geometry">
            <mxRectangle width="54" height="54" as="alternateBounds" />
          </mxGeometry>
        </mxCell>
        <mxCell id="KwmrwxW-xq00A47at4ye-282" value="" style="shape=partialRectangle;html=1;whiteSpace=wrap;connectable=0;fillColor=none;top=0;left=0;bottom=0;right=0;overflow=hidden;" vertex="1" parent="KwmrwxW-xq00A47at4ye-276">
          <mxGeometry x="274" width="55" height="54" as="geometry">
            <mxRectangle width="55" height="54" as="alternateBounds" />
          </mxGeometry>
        </mxCell>
        <mxCell id="KwmrwxW-xq00A47at4ye-283" style="shape=partialRectangle;html=1;whiteSpace=wrap;connectable=0;fillColor=none;top=0;left=0;bottom=0;right=0;overflow=hidden;" vertex="1" parent="KwmrwxW-xq00A47at4ye-276">
          <mxGeometry x="329" width="54" height="54" as="geometry">
            <mxRectangle width="54" height="54" as="alternateBounds" />
          </mxGeometry>
        </mxCell>
        <mxCell id="KwmrwxW-xq00A47at4ye-284" style="shape=partialRectangle;html=1;whiteSpace=wrap;connectable=0;fillColor=none;top=0;left=0;bottom=0;right=0;overflow=hidden;" vertex="1" parent="KwmrwxW-xq00A47at4ye-276">
          <mxGeometry x="383" width="56" height="54" as="geometry">
            <mxRectangle width="56" height="54" as="alternateBounds" />
          </mxGeometry>
        </mxCell>
        <mxCell id="KwmrwxW-xq00A47at4ye-285" value="" style="shape=tableRow;horizontal=0;startSize=0;swimlaneHead=0;swimlaneBody=0;top=0;left=0;bottom=0;right=0;collapsible=0;dropTarget=0;fillColor=none;points=[[0,0.5],[1,0.5]];portConstraint=eastwest;" vertex="1" parent="KwmrwxW-xq00A47at4ye-248">
          <mxGeometry y="217" width="438.9999999999991" height="54" as="geometry" />
        </mxCell>
        <mxCell id="KwmrwxW-xq00A47at4ye-286" value="&lt;font style=&quot;font-size: 18px;&quot; face=&quot;Comic Sans MS&quot;&gt;4&lt;/font&gt;" style="shape=partialRectangle;html=1;whiteSpace=wrap;connectable=0;fillColor=none;top=0;left=0;bottom=0;right=0;overflow=hidden;" vertex="1" parent="KwmrwxW-xq00A47at4ye-285">
          <mxGeometry width="55" height="54" as="geometry">
            <mxRectangle width="55" height="54" as="alternateBounds" />
          </mxGeometry>
        </mxCell>
        <mxCell id="KwmrwxW-xq00A47at4ye-287" style="shape=partialRectangle;html=1;whiteSpace=wrap;connectable=0;fillColor=none;top=0;left=0;bottom=0;right=0;overflow=hidden;" vertex="1" parent="KwmrwxW-xq00A47at4ye-285">
          <mxGeometry x="55" width="56" height="54" as="geometry">
            <mxRectangle width="56" height="54" as="alternateBounds" />
          </mxGeometry>
        </mxCell>
        <mxCell id="KwmrwxW-xq00A47at4ye-288" style="shape=partialRectangle;html=1;whiteSpace=wrap;connectable=0;fillColor=none;top=0;left=0;bottom=0;right=0;overflow=hidden;" vertex="1" parent="KwmrwxW-xq00A47at4ye-285">
          <mxGeometry x="111" width="53" height="54" as="geometry">
            <mxRectangle width="53" height="54" as="alternateBounds" />
          </mxGeometry>
        </mxCell>
        <mxCell id="KwmrwxW-xq00A47at4ye-289" style="shape=partialRectangle;html=1;whiteSpace=wrap;connectable=0;fillColor=none;top=0;left=0;bottom=0;right=0;overflow=hidden;" vertex="1" parent="KwmrwxW-xq00A47at4ye-285">
          <mxGeometry x="164" width="56" height="54" as="geometry">
            <mxRectangle width="56" height="54" as="alternateBounds" />
          </mxGeometry>
        </mxCell>
        <mxCell id="KwmrwxW-xq00A47at4ye-290" value="&lt;font face=&quot;Comic Sans MS&quot; style=&quot;font-size: 16px;&quot;&gt;1&lt;/font&gt;" style="shape=partialRectangle;html=1;whiteSpace=wrap;connectable=0;fillColor=#fff2cc;top=0;left=0;bottom=0;right=0;overflow=hidden;strokeColor=#d6b656;" vertex="1" parent="KwmrwxW-xq00A47at4ye-285">
          <mxGeometry x="220" width="54" height="54" as="geometry">
            <mxRectangle width="54" height="54" as="alternateBounds" />
          </mxGeometry>
        </mxCell>
        <mxCell id="KwmrwxW-xq00A47at4ye-291" value="" style="shape=partialRectangle;html=1;whiteSpace=wrap;connectable=0;fillColor=none;top=0;left=0;bottom=0;right=0;overflow=hidden;" vertex="1" parent="KwmrwxW-xq00A47at4ye-285">
          <mxGeometry x="274" width="55" height="54" as="geometry">
            <mxRectangle width="55" height="54" as="alternateBounds" />
          </mxGeometry>
        </mxCell>
        <mxCell id="KwmrwxW-xq00A47at4ye-292" style="shape=partialRectangle;html=1;whiteSpace=wrap;connectable=0;fillColor=none;top=0;left=0;bottom=0;right=0;overflow=hidden;" vertex="1" parent="KwmrwxW-xq00A47at4ye-285">
          <mxGeometry x="329" width="54" height="54" as="geometry">
            <mxRectangle width="54" height="54" as="alternateBounds" />
          </mxGeometry>
        </mxCell>
        <mxCell id="KwmrwxW-xq00A47at4ye-293" style="shape=partialRectangle;html=1;whiteSpace=wrap;connectable=0;fillColor=none;top=0;left=0;bottom=0;right=0;overflow=hidden;" vertex="1" parent="KwmrwxW-xq00A47at4ye-285">
          <mxGeometry x="383" width="56" height="54" as="geometry">
            <mxRectangle width="56" height="54" as="alternateBounds" />
          </mxGeometry>
        </mxCell>
        <mxCell id="KwmrwxW-xq00A47at4ye-294" style="shape=tableRow;horizontal=0;startSize=0;swimlaneHead=0;swimlaneBody=0;top=0;left=0;bottom=0;right=0;collapsible=0;dropTarget=0;fillColor=none;points=[[0,0.5],[1,0.5]];portConstraint=eastwest;" vertex="1" parent="KwmrwxW-xq00A47at4ye-248">
          <mxGeometry y="271" width="438.9999999999991" height="55" as="geometry" />
        </mxCell>
        <mxCell id="KwmrwxW-xq00A47at4ye-295" value="&lt;font style=&quot;font-size: 18px;&quot; face=&quot;Comic Sans MS&quot;&gt;5&lt;/font&gt;" style="shape=partialRectangle;html=1;whiteSpace=wrap;connectable=0;fillColor=none;top=0;left=0;bottom=0;right=0;overflow=hidden;" vertex="1" parent="KwmrwxW-xq00A47at4ye-294">
          <mxGeometry width="55" height="55" as="geometry">
            <mxRectangle width="55" height="55" as="alternateBounds" />
          </mxGeometry>
        </mxCell>
        <mxCell id="KwmrwxW-xq00A47at4ye-296" style="shape=partialRectangle;html=1;whiteSpace=wrap;connectable=0;fillColor=none;top=0;left=0;bottom=0;right=0;overflow=hidden;" vertex="1" parent="KwmrwxW-xq00A47at4ye-294">
          <mxGeometry x="55" width="56" height="55" as="geometry">
            <mxRectangle width="56" height="55" as="alternateBounds" />
          </mxGeometry>
        </mxCell>
        <mxCell id="KwmrwxW-xq00A47at4ye-297" style="shape=partialRectangle;html=1;whiteSpace=wrap;connectable=0;fillColor=none;top=0;left=0;bottom=0;right=0;overflow=hidden;" vertex="1" parent="KwmrwxW-xq00A47at4ye-294">
          <mxGeometry x="111" width="53" height="55" as="geometry">
            <mxRectangle width="53" height="55" as="alternateBounds" />
          </mxGeometry>
        </mxCell>
        <mxCell id="KwmrwxW-xq00A47at4ye-298" style="shape=partialRectangle;html=1;whiteSpace=wrap;connectable=0;fillColor=none;top=0;left=0;bottom=0;right=0;overflow=hidden;" vertex="1" parent="KwmrwxW-xq00A47at4ye-294">
          <mxGeometry x="164" width="56" height="55" as="geometry">
            <mxRectangle width="56" height="55" as="alternateBounds" />
          </mxGeometry>
        </mxCell>
        <mxCell id="KwmrwxW-xq00A47at4ye-299" style="shape=partialRectangle;html=1;whiteSpace=wrap;connectable=0;fillColor=none;top=0;left=0;bottom=0;right=0;overflow=hidden;" vertex="1" parent="KwmrwxW-xq00A47at4ye-294">
          <mxGeometry x="220" width="54" height="55" as="geometry">
            <mxRectangle width="54" height="55" as="alternateBounds" />
          </mxGeometry>
        </mxCell>
        <mxCell id="KwmrwxW-xq00A47at4ye-300" value="&lt;font style=&quot;font-size: 16px;&quot; face=&quot;Comic Sans MS&quot;&gt;1&lt;/font&gt;" style="shape=partialRectangle;html=1;whiteSpace=wrap;connectable=0;fillColor=#fff2cc;top=0;left=0;bottom=0;right=0;overflow=hidden;strokeColor=#d6b656;" vertex="1" parent="KwmrwxW-xq00A47at4ye-294">
          <mxGeometry x="274" width="55" height="55" as="geometry">
            <mxRectangle width="55" height="55" as="alternateBounds" />
          </mxGeometry>
        </mxCell>
        <mxCell id="KwmrwxW-xq00A47at4ye-301" value="&lt;font face=&quot;Comic Sans MS&quot; style=&quot;font-size: 15px;&quot;&gt;f[5][6]&lt;/font&gt;" style="shape=partialRectangle;html=1;whiteSpace=wrap;connectable=0;fillColor=none;top=0;left=0;bottom=0;right=0;overflow=hidden;" vertex="1" parent="KwmrwxW-xq00A47at4ye-294">
          <mxGeometry x="329" width="54" height="55" as="geometry">
            <mxRectangle width="54" height="55" as="alternateBounds" />
          </mxGeometry>
        </mxCell>
        <mxCell id="KwmrwxW-xq00A47at4ye-302" value="" style="shape=partialRectangle;html=1;whiteSpace=wrap;connectable=0;fillColor=none;top=0;left=0;bottom=0;right=0;overflow=hidden;" vertex="1" parent="KwmrwxW-xq00A47at4ye-294">
          <mxGeometry x="383" width="56" height="55" as="geometry">
            <mxRectangle width="56" height="55" as="alternateBounds" />
          </mxGeometry>
        </mxCell>
        <mxCell id="KwmrwxW-xq00A47at4ye-303" style="shape=tableRow;horizontal=0;startSize=0;swimlaneHead=0;swimlaneBody=0;top=0;left=0;bottom=0;right=0;collapsible=0;dropTarget=0;fillColor=none;points=[[0,0.5],[1,0.5]];portConstraint=eastwest;" vertex="1" parent="KwmrwxW-xq00A47at4ye-248">
          <mxGeometry y="326" width="438.9999999999991" height="54" as="geometry" />
        </mxCell>
        <mxCell id="KwmrwxW-xq00A47at4ye-304" value="&lt;font face=&quot;Comic Sans MS&quot; style=&quot;font-size: 18px;&quot;&gt;6&lt;/font&gt;" style="shape=partialRectangle;html=1;whiteSpace=wrap;connectable=0;fillColor=none;top=0;left=0;bottom=0;right=0;overflow=hidden;" vertex="1" parent="KwmrwxW-xq00A47at4ye-303">
          <mxGeometry width="55" height="54" as="geometry">
            <mxRectangle width="55" height="54" as="alternateBounds" />
          </mxGeometry>
        </mxCell>
        <mxCell id="KwmrwxW-xq00A47at4ye-305" style="shape=partialRectangle;html=1;whiteSpace=wrap;connectable=0;fillColor=none;top=0;left=0;bottom=0;right=0;overflow=hidden;" vertex="1" parent="KwmrwxW-xq00A47at4ye-303">
          <mxGeometry x="55" width="56" height="54" as="geometry">
            <mxRectangle width="56" height="54" as="alternateBounds" />
          </mxGeometry>
        </mxCell>
        <mxCell id="KwmrwxW-xq00A47at4ye-306" style="shape=partialRectangle;html=1;whiteSpace=wrap;connectable=0;fillColor=none;top=0;left=0;bottom=0;right=0;overflow=hidden;" vertex="1" parent="KwmrwxW-xq00A47at4ye-303">
          <mxGeometry x="111" width="53" height="54" as="geometry">
            <mxRectangle width="53" height="54" as="alternateBounds" />
          </mxGeometry>
        </mxCell>
        <mxCell id="KwmrwxW-xq00A47at4ye-307" style="shape=partialRectangle;html=1;whiteSpace=wrap;connectable=0;fillColor=none;top=0;left=0;bottom=0;right=0;overflow=hidden;" vertex="1" parent="KwmrwxW-xq00A47at4ye-303">
          <mxGeometry x="164" width="56" height="54" as="geometry">
            <mxRectangle width="56" height="54" as="alternateBounds" />
          </mxGeometry>
        </mxCell>
        <mxCell id="KwmrwxW-xq00A47at4ye-308" style="shape=partialRectangle;html=1;whiteSpace=wrap;connectable=0;fillColor=none;top=0;left=0;bottom=0;right=0;overflow=hidden;" vertex="1" parent="KwmrwxW-xq00A47at4ye-303">
          <mxGeometry x="220" width="54" height="54" as="geometry">
            <mxRectangle width="54" height="54" as="alternateBounds" />
          </mxGeometry>
        </mxCell>
        <mxCell id="KwmrwxW-xq00A47at4ye-309" style="shape=partialRectangle;html=1;whiteSpace=wrap;connectable=0;fillColor=none;top=0;left=0;bottom=0;right=0;overflow=hidden;" vertex="1" parent="KwmrwxW-xq00A47at4ye-303">
          <mxGeometry x="274" width="55" height="54" as="geometry">
            <mxRectangle width="55" height="54" as="alternateBounds" />
          </mxGeometry>
        </mxCell>
        <mxCell id="KwmrwxW-xq00A47at4ye-310" value="&lt;font face=&quot;Comic Sans MS&quot; style=&quot;font-size: 16px;&quot;&gt;1&lt;/font&gt;" style="shape=partialRectangle;html=1;whiteSpace=wrap;connectable=0;fillColor=#fff2cc;top=0;left=0;bottom=0;right=0;overflow=hidden;strokeColor=#d6b656;" vertex="1" parent="KwmrwxW-xq00A47at4ye-303">
          <mxGeometry x="329" width="54" height="54" as="geometry">
            <mxRectangle width="54" height="54" as="alternateBounds" />
          </mxGeometry>
        </mxCell>
        <mxCell id="KwmrwxW-xq00A47at4ye-311" value="&lt;font face=&quot;Comic Sans MS&quot; style=&quot;font-size: 16px;&quot;&gt;f[6][7]&lt;/font&gt;" style="shape=partialRectangle;html=1;whiteSpace=wrap;connectable=0;fillColor=none;top=0;left=0;bottom=0;right=0;overflow=hidden;" vertex="1" parent="KwmrwxW-xq00A47at4ye-303">
          <mxGeometry x="383" width="56" height="54" as="geometry">
            <mxRectangle width="56" height="54" as="alternateBounds" />
          </mxGeometry>
        </mxCell>
        <mxCell id="KwmrwxW-xq00A47at4ye-312" style="shape=tableRow;horizontal=0;startSize=0;swimlaneHead=0;swimlaneBody=0;top=0;left=0;bottom=0;right=0;collapsible=0;dropTarget=0;fillColor=none;points=[[0,0.5],[1,0.5]];portConstraint=eastwest;" vertex="1" parent="KwmrwxW-xq00A47at4ye-248">
          <mxGeometry y="380" width="438.9999999999991" height="54" as="geometry" />
        </mxCell>
        <mxCell id="KwmrwxW-xq00A47at4ye-313" value="&lt;font face=&quot;Comic Sans MS&quot; style=&quot;font-size: 18px;&quot;&gt;7&lt;/font&gt;" style="shape=partialRectangle;html=1;whiteSpace=wrap;connectable=0;fillColor=none;top=0;left=0;bottom=0;right=0;overflow=hidden;" vertex="1" parent="KwmrwxW-xq00A47at4ye-312">
          <mxGeometry width="55" height="54" as="geometry">
            <mxRectangle width="55" height="54" as="alternateBounds" />
          </mxGeometry>
        </mxCell>
        <mxCell id="KwmrwxW-xq00A47at4ye-314" style="shape=partialRectangle;html=1;whiteSpace=wrap;connectable=0;fillColor=none;top=0;left=0;bottom=0;right=0;overflow=hidden;" vertex="1" parent="KwmrwxW-xq00A47at4ye-312">
          <mxGeometry x="55" width="56" height="54" as="geometry">
            <mxRectangle width="56" height="54" as="alternateBounds" />
          </mxGeometry>
        </mxCell>
        <mxCell id="KwmrwxW-xq00A47at4ye-315" style="shape=partialRectangle;html=1;whiteSpace=wrap;connectable=0;fillColor=none;top=0;left=0;bottom=0;right=0;overflow=hidden;" vertex="1" parent="KwmrwxW-xq00A47at4ye-312">
          <mxGeometry x="111" width="53" height="54" as="geometry">
            <mxRectangle width="53" height="54" as="alternateBounds" />
          </mxGeometry>
        </mxCell>
        <mxCell id="KwmrwxW-xq00A47at4ye-316" style="shape=partialRectangle;html=1;whiteSpace=wrap;connectable=0;fillColor=none;top=0;left=0;bottom=0;right=0;overflow=hidden;" vertex="1" parent="KwmrwxW-xq00A47at4ye-312">
          <mxGeometry x="164" width="56" height="54" as="geometry">
            <mxRectangle width="56" height="54" as="alternateBounds" />
          </mxGeometry>
        </mxCell>
        <mxCell id="KwmrwxW-xq00A47at4ye-317" style="shape=partialRectangle;html=1;whiteSpace=wrap;connectable=0;fillColor=none;top=0;left=0;bottom=0;right=0;overflow=hidden;" vertex="1" parent="KwmrwxW-xq00A47at4ye-312">
          <mxGeometry x="220" width="54" height="54" as="geometry">
            <mxRectangle width="54" height="54" as="alternateBounds" />
          </mxGeometry>
        </mxCell>
        <mxCell id="KwmrwxW-xq00A47at4ye-318" style="shape=partialRectangle;html=1;whiteSpace=wrap;connectable=0;fillColor=none;top=0;left=0;bottom=0;right=0;overflow=hidden;" vertex="1" parent="KwmrwxW-xq00A47at4ye-312">
          <mxGeometry x="274" width="55" height="54" as="geometry">
            <mxRectangle width="55" height="54" as="alternateBounds" />
          </mxGeometry>
        </mxCell>
        <mxCell id="KwmrwxW-xq00A47at4ye-319" style="shape=partialRectangle;html=1;whiteSpace=wrap;connectable=0;fillColor=none;top=0;left=0;bottom=0;right=0;overflow=hidden;" vertex="1" parent="KwmrwxW-xq00A47at4ye-312">
          <mxGeometry x="329" width="54" height="54" as="geometry">
            <mxRectangle width="54" height="54" as="alternateBounds" />
          </mxGeometry>
        </mxCell>
        <mxCell id="KwmrwxW-xq00A47at4ye-320" value="&lt;font style=&quot;font-size: 16px;&quot; face=&quot;Comic Sans MS&quot;&gt;1&lt;/font&gt;" style="shape=partialRectangle;html=1;whiteSpace=wrap;connectable=0;fillColor=#fff2cc;top=0;left=0;bottom=0;right=0;overflow=hidden;strokeColor=#d6b656;" vertex="1" parent="KwmrwxW-xq00A47at4ye-312">
          <mxGeometry x="383" width="56" height="54" as="geometry">
            <mxRectangle width="56" height="54" as="alternateBounds" />
          </mxGeometry>
        </mxCell>
        <mxCell id="KwmrwxW-xq00A47at4ye-322" value="&lt;font face=&quot;Comic Sans MS&quot;&gt;i&lt;/font&gt;" style="text;html=1;align=center;verticalAlign=middle;resizable=0;points=[];autosize=1;strokeColor=#6c8ebf;fillColor=#dae8fc;fontSize=20;" vertex="1" parent="1">
          <mxGeometry x="610" y="332" width="26" height="38" as="geometry" />
        </mxCell>
        <mxCell id="KwmrwxW-xq00A47at4ye-323" value="&lt;font face=&quot;Comic Sans MS&quot;&gt;j&lt;/font&gt;" style="text;html=1;align=center;verticalAlign=middle;resizable=0;points=[];autosize=1;strokeColor=#6c8ebf;fillColor=#dae8fc;fontSize=20;" vertex="1" parent="1">
          <mxGeometry x="854" y="92" width="28" height="38" as="geometry" />
        </mxCell>
        <mxCell id="KwmrwxW-xq00A47at4ye-324" value="&lt;font style=&quot;font-size: 20px;&quot; face=&quot;Comic Sans MS&quot;&gt;f[i][j] = min(f[i][k] + f[k+1][j])&lt;/font&gt;" style="text;html=1;align=center;verticalAlign=middle;resizable=0;points=[];autosize=1;strokeColor=#b85450;fillColor=#f8cecc;fontSize=20;" vertex="1" parent="1">
          <mxGeometry x="716" y="574" width="298" height="38" as="geometry" />
        </mxCell>
        <mxCell id="KwmrwxW-xq00A47at4ye-325" value="" style="endArrow=classic;html=1;rounded=0;fontSize=20;fillColor=#d5e8d4;strokeColor=#82b366;snapToPoint=1;strokeWidth=3;" edge="1" parent="1">
          <mxGeometry width="50" height="50" relative="1" as="geometry">
            <mxPoint x="972" y="215.71000000000004" as="sourcePoint" />
            <mxPoint x="828" y="215.71000000000004" as="targetPoint" />
          </mxGeometry>
        </mxCell>
        <mxCell id="KwmrwxW-xq00A47at4ye-326" value="" style="endArrow=classic;html=1;rounded=0;fontSize=20;fillColor=#d5e8d4;strokeColor=#82b366;snapToPoint=1;strokeWidth=3;" edge="1" parent="1">
          <mxGeometry width="50" height="50" relative="1" as="geometry">
            <mxPoint x="1004" y="238" as="sourcePoint" />
            <mxPoint x="1004" y="396" as="targetPoint" />
          </mxGeometry>
        </mxCell>
        <mxCell id="KwmrwxW-xq00A47at4ye-327" value="" style="rounded=1;whiteSpace=wrap;html=1;fontFamily=Comic Sans MS;fontSize=16;fillColor=none;strokeColor=#FF9999;strokeWidth=2;" vertex="1" parent="1">
          <mxGeometry x="1032" y="470" width="56" height="40" as="geometry" />
        </mxCell>
        <mxCell id="KwmrwxW-xq00A47at4ye-328" value="" style="rounded=1;whiteSpace=wrap;html=1;fontFamily=Comic Sans MS;fontSize=16;fillColor=none;strokeColor=#00CC66;strokeWidth=2;" vertex="1" parent="1">
          <mxGeometry x="978" y="196" width="58" height="40" as="geometry" />
        </mxCell>
        <mxCell id="KwmrwxW-xq00A47at4ye-329" value="&lt;font style=&quot;font-size: 20px;&quot; face=&quot;Comic Sans MS&quot;&gt;以i和j为遍历基础&lt;/font&gt;" style="text;html=1;align=center;verticalAlign=middle;resizable=0;points=[];autosize=1;strokeColor=#82b366;fillColor=#d5e8d4;fontSize=20;" vertex="1" parent="1">
          <mxGeometry x="780" y="622" width="174" height="38" as="geometry" />
        </mxCell>
        <mxCell id="KwmrwxW-xq00A47at4ye-321" value="" style="endArrow=classic;html=1;rounded=1;fontSize=20;fillColor=#f8cecc;strokeColor=#b85450;strokeWidth=4;" edge="1" parent="1">
          <mxGeometry width="50" height="50" relative="1" as="geometry">
            <mxPoint x="1030" y="432" as="sourcePoint" />
            <mxPoint x="1070" y="432" as="targetPoint" />
            <Array as="points" />
          </mxGeometry>
        </mxCell>
        <mxCell id="KwmrwxW-xq00A47at4ye-333" value="" style="endArrow=classic;html=1;rounded=1;fontSize=20;fillColor=#f8cecc;strokeColor=#b85450;strokeWidth=4;" edge="1" parent="1">
          <mxGeometry width="50" height="50" relative="1" as="geometry">
            <mxPoint x="1072" y="472" as="sourcePoint" />
            <mxPoint x="1072" y="438" as="targetPoint" />
            <Array as="points" />
          </mxGeometry>
        </mxCell>
      </root>
    </mxGraphModel>
  </diagram>
</mxfile>
